<svg width="155" height="58" viewBox="0 0 155 58" fill="none" xmlns="http://www.w3.org/2000/svg">
<path fill-rule="evenodd" clip-rule="evenodd" d="M140 14C131.716 14 125 20.7157 125 29C125 37.2843 131.716 44 140 44C148.284 44 155 37.2843 155 29C155 20.7157 148.284 14 140 14ZM140 24C137.239 24 135 26.2386 135 29C135 31.7614 137.239 34 140 34C142.761 34 145 31.7614 145 29C145 26.2386 142.761 24 140 24Z" fill="#068FFF"/>
<path fill-rule="evenodd" clip-rule="evenodd" d="M81 14C72.7157 14 66 20.7157 66 29C66 37.2843 72.7157 44 81 44C89.2843 44 96 37.2843 96 29C96 20.7157 89.2843 14 81 14ZM81 24C78.2386 24 76 26.2386 76 29C76 31.7614 78.2386 34 81 34C83.7614 34 86 31.7614 86 29C86 26.2386 83.7614 24 81 24Z" fill="#068FFF"/>
<path fill-rule="evenodd" clip-rule="evenodd" d="M48 14C39.7157 14 33 20.7157 33 29C33 37.2843 39.7157 44 48 44C56.2843 44 63 37.2843 63 29C63 20.7157 56.2843 14 48 14ZM48 24C45.2386 24 43 26.2386 43 29C43 31.7614 45.2386 34 48 34C50.7614 34 53 31.7614 53 29C53 26.2386 50.7614 24 48 24Z" fill="#068FFF"/>
<path fill-rule="evenodd" clip-rule="evenodd" d="M15 14C6.71573 14 2.03558e-06 20.7157 0 29C0 37.2843 6.71573 44 15 44C23.2843 44 30 37.2843 30 29C30 20.7157 23.2843 14 15 14ZM15 24C12.2386 24 10 26.2386 10 29C10 31.7614 12.2386 34 15 34C17.7614 34 20 31.7614 20 29C20 26.2386 17.7614 24 15 24Z" fill="#068FFF"/>
<path d="M22 29H30V41C30 42.6569 28.6569 44 27 44H25C23.3431 44 22 42.6569 22 41V29Z" fill="#068FFF"/>
<path d="M33 29H43V55C43 56.6569 41.6569 58 40 58H36C34.3431 58 33 56.6569 33 55V29Z" fill="#068FFF"/>
<rect x="99" width="10" height="44" rx="3" fill="#068FFF"/>
<rect x="112" width="10" height="44" rx="3" fill="#068FFF"/>
</svg>
