<svg width="164" height="58" viewBox="0 0 164 58" fill="none" xmlns="http://www.w3.org/2000/svg">
<path fill-rule="evenodd" clip-rule="evenodd" d="M149 14C140.716 14 134 20.7157 134 29C134 37.2843 140.716 44 149 44C157.284 44 164 37.2843 164 29C164 20.7157 157.284 14 149 14ZM149 24C146.239 24 144 26.2386 144 29C144 31.7614 146.239 34 149 34C151.761 34 154 31.7614 154 29C154 26.2386 151.761 24 149 24Z" fill="#068FFF"/>
<path fill-rule="evenodd" clip-rule="evenodd" d="M90 14C81.7157 14 75 20.7157 75 29C75 37.2843 81.7157 44 90 44C98.2843 44 105 37.2843 105 29C105 20.7157 98.2843 14 90 14ZM90 24C87.2386 24 85 26.2386 85 29C85 31.7614 87.2386 34 90 34C92.7614 34 95 31.7614 95 29C95 26.2386 92.7614 24 90 24Z" fill="#068FFF"/>
<path fill-rule="evenodd" clip-rule="evenodd" d="M58 14C49.7157 14 43 20.7157 43 29C43 37.2843 49.7157 44 58 44C66.2843 44 73 37.2843 73 29C73 20.7157 66.2843 14 58 14ZM58 24C55.2386 24 53 26.2386 53 29C53 31.7614 55.2386 34 58 34C60.7614 34 63 31.7614 63 29C63 26.2386 60.7614 24 58 24Z" fill="#068FFF"/>
<path fill-rule="evenodd" clip-rule="evenodd" d="M15 14C6.71573 14 2.03558e-06 20.7157 0 29C0 37.2843 6.71573 44 15 44C23.2843 44 30 37.2843 30 29C30 20.7157 23.2843 14 15 14ZM15 24C12.2386 24 10 26.2386 10 29C10 31.7614 12.2386 34 15 34C17.7614 34 20 31.7614 20 29C20 26.2386 17.7614 24 15 24Z" fill="#068FFF"/>
<rect x="25" y="14" width="10" height="30" rx="1" fill="#068FFF"/>
<rect x="38" y="14" width="10" height="44" rx="1" fill="#068FFF"/>
<rect x="108" width="10" height="44" rx="1" fill="#068FFF"/>
<rect x="121" width="10" height="44" rx="1" fill="#068FFF"/>
</svg>
