<svg width="162" height="58" viewBox="0 0 162 58" fill="none" xmlns="http://www.w3.org/2000/svg">
<path fill-rule="evenodd" clip-rule="evenodd" d="M147 14C138.716 14 132 20.7157 132 29C132 37.2843 138.716 44 147 44C155.284 44 162 37.2843 162 29C162 20.7157 155.284 14 147 14ZM147 24C144.239 24 142 26.2386 142 29C142 31.7614 144.239 34 147 34C149.761 34 152 31.7614 152 29C152 26.2386 149.761 24 147 24Z" fill="#068FFF"/>
<path fill-rule="evenodd" clip-rule="evenodd" d="M88 14C79.7157 14 73 20.7157 73 29C73 37.2843 79.7157 44 88 44C96.2843 44 103 37.2843 103 29C103 20.7157 96.2843 14 88 14ZM88 24C85.2386 24 83 26.2386 83 29C83 31.7614 85.2386 34 88 34C90.7614 34 93 31.7614 93 29C93 26.2386 90.7614 24 88 24Z" fill="#068FFF"/>
<path fill-rule="evenodd" clip-rule="evenodd" d="M56 14C47.7157 14 41 20.7157 41 29C41 37.2843 47.7157 44 56 44C64.2843 44 71 37.2843 71 29C71 20.7157 64.2843 14 56 14ZM56 24C53.2386 24 51 26.2386 51 29C51 31.7614 53.2386 34 56 34C58.7614 34 61 31.7614 61 29C61 26.2386 58.7614 24 56 24Z" fill="#068FFF"/>
<path fill-rule="evenodd" clip-rule="evenodd" d="M15 14C6.71573 14 2.03558e-06 20.7157 0 29C0 37.2843 6.71573 44 15 44C23.2843 44 30 37.2843 30 29C30 20.7157 23.2843 14 15 14ZM15 24C12.2386 24 10 26.2386 10 29C10 31.7614 12.2386 34 15 34C17.7614 34 20 31.7614 20 29C20 26.2386 17.7614 24 15 24Z" fill="#068FFF"/>
<rect x="24" y="14" width="10" height="30" rx="1" fill="#068FFF"/>
<rect x="37" y="14" width="10" height="44" rx="1" fill="#068FFF"/>
<rect x="106" width="10" height="44" rx="1" fill="#068FFF"/>
<rect x="119" width="10" height="44" rx="1" fill="#068FFF"/>
</svg>
